HIERARCHY
ROOT Hips
{
    OFFSET 0.000000 0.000000 0.000000
    CHANNELS 6 Xposition Yposition Zposition Zrotation Xrotation Yrotation
    JOINT Spine
    {
        OFFSET -0.000000 7.236184 0.000000
        CHANNELS 3 Zrotation Xrotation Yrotation
        JOINT Spine1
        {
            OFFSET -0.000000 20.420147 0.000000
            CHANNELS 3 Zrotation Xrotation Yrotation
            JOINT Neck
            {
                OFFSET -0.000000 20.336288 1.848754
                CHANNELS 3 Zrotation Xrotation Yrotation
                JOINT Head
                {
                    OFFSET -0.000000 12.354461 -1.764923
                    CHANNELS 3 Zrotation Xrotation Yrotation
                    End Site
                    {
                        OFFSET -0.000000 22.061537 0.000000
                    }
                }
            }
            JOINT LeftShoulder
            {
                OFFSET 3.573296 18.396038 -0.314103
                CHANNELS 3 Zrotation Xrotation Yrotation
                JOINT LeftArm
                {
                    OFFSET 10.880760 0.000000 0.000000
                    CHANNELS 3 Zrotation Xrotation Yrotation
                    JOINT LeftForeArm
                    {
                        OFFSET 27.185530 0.000000 0.000000
                        CHANNELS 3 Zrotation Xrotation Yrotation
                        JOINT LeftHand
                        {
                            OFFSET 27.825975 0.000000 0.000000
                            CHANNELS 3 Zrotation Xrotation Yrotation
                            End Site
                            {
                                OFFSET 13.236923 0.000000 0.000000
                            }
                        }
                    }
                }
            }
            JOINT RightShoulder
            {
                OFFSET -3.474926 18.396038 -0.314103
                CHANNELS 3 Zrotation Xrotation Yrotation
                JOINT RightArm
                {
                    OFFSET -10.880760 0.000000 0.000000
                    CHANNELS 3 Zrotation Xrotation Yrotation
                    JOINT RightForeArm
                    {
                        OFFSET -27.185530 0.000000 0.000000
                        CHANNELS 3 Zrotation Xrotation Yrotation
                        JOINT RightHand
                        {
                            OFFSET -27.825975 0.000000 0.000000
                            CHANNELS 3 Zrotation Xrotation Yrotation
                            End Site
                            {
                                OFFSET -13.236923 0.000000 0.000000
                            }
                        }
                    }
                }
            }
        }
    }
    JOINT LeftUpLeg
    {
        OFFSET 8.824615 0.000000 0.000000
        CHANNELS 3 Zrotation Xrotation Yrotation
        JOINT LeftLeg
        {
            OFFSET -0.000000 -35.111282 0.000000
            CHANNELS 3 Zrotation Xrotation Yrotation
            JOINT LeftFoot
            {
                OFFSET -0.000000 -42.324711 0.000000
                CHANNELS 3 Zrotation Xrotation Yrotation
                JOINT LeftToeBase
                {
                    OFFSET -0.000000 -5.735999 13.236923
                    CHANNELS 3 Zrotation Xrotation Yrotation
                    End Site
                    {
                        OFFSET -0.000000 0.000000 3.529846
                    }
                }
            }
        }
    }
    JOINT RightUpLeg
    {
        OFFSET -8.824615 0.000000 0.000000
        CHANNELS 3 Zrotation Xrotation Yrotation
        JOINT RightLeg
        {
            OFFSET -0.000000 -35.111282 0.000000
            CHANNELS 3 Zrotation Xrotation Yrotation
            JOINT RightFoot
            {
                OFFSET -0.000000 -42.324711 0.000000
                CHANNELS 3 Zrotation Xrotation Yrotation
                JOINT RightToeBase
                {
                    OFFSET -0.000000 -5.735999 13.236923
                    CHANNELS 3 Zrotation Xrotation Yrotation
                    End Site
                    {
                        OFFSET -0.000000 0.000000 3.529846
                    }
                }
            }
        }
    }
}
MOTION
Frames:    6
Frame Time:    0.008333
-3.174140    81.356857    107.807373    7.144333    -15.349428    -175.227905    -0.791449    -10.047266    2.437387    5.532614    4.534662    2.287708    8.342443    7.648346    -14.332981    28.813864    -32.172890    -3.531990    11.587946    4.849030    -12.853261    -8.724527    27.034210    -55.973972    28.159103    4.458039    -36.331890    57.845390    7.380060    -11.733682    -4.411951    11.114740    4.505828    24.472395    19.168695    26.881227    -33.683411    -0.854039    44.014587    -50.117294    10.253985    6.253403    16.216097    -34.502926    2.606466    3.151859    33.807510    4.178913    -15.092656    -11.427125    -17.612658    0.445390    -1.580669    -0.495127    -26.268110    -22.830206    -6.807247    5.659981    34.759174    -0.164989    17.234039    0.150979    -8.993303    0.530841    -9.716353    -0.582572    
-3.597700    81.694092    107.558189    7.323513    -15.229795    -175.260315    -0.730251    -10.198513    2.395056    5.678538    4.381248    2.242807    8.441700    8.009295    -14.562038    29.168591    -31.634985    -3.736407    11.387587    5.435792    -12.025572    -9.475370    28.341757    -54.353222    28.275747    4.398163    -37.385952    57.881405    7.616203    -11.795943    -4.169075    11.554439    3.590525    25.450916    20.033953    25.306162    -33.576077    -0.916297    45.222565    -50.407768    10.546165    6.265323    16.055447    -33.658142    2.379224    2.959213    32.880188    4.291878    -14.931302    -11.373216    -17.467108    0.433822    -1.631126    -0.482312    -26.441710    -22.573185    -6.676137    6.049050    36.855801    -0.443115    16.736597    0.283064    -9.174412    0.568507    -10.079094    -0.624284    
-4.005370    82.012810    107.312157    7.489568    -15.114619    -175.283340    -0.676094    -10.330177    2.333842    5.825694    4.236350    2.179285    8.506144    8.318780    -14.760161    29.507086    -31.105114    -3.916933    11.182348    6.009330    -11.179109    -10.350836    29.627024    -52.614609    28.375496    4.327430    -38.379986    57.899071    7.845749    -11.821273    -3.965845    11.975573    2.677654    26.466337    20.895212    23.721870    -33.430717    -0.969097    46.354012    -50.683929    10.809164    6.267246    15.903684    -32.834309    2.174393    2.778602    31.967913    4.393724    -14.799970    -11.308391    -17.349709    0.420462    -1.682550    -0.467503    -26.648420    -22.359766    -6.630627    6.443467    39.192738    -0.662966    16.254372    0.405825    -9.352664    0.608704    -10.438316    -0.668825    
-4.397301    82.312462    107.069031    7.643763    -15.005056    -175.297989    -0.629974    -10.443477    2.253762    5.975491    4.097681    2.097346    8.536668    8.580997    -14.927584    29.832146    -30.584146    -4.072277    10.974081    6.571485    -10.316902    -11.355407    30.888561    -50.752216    28.460348    4.240168    -39.308426    57.900402    8.061804    -11.808210    -3.800298    12.375596    1.770145    27.519426    21.758831    22.124908    -33.253735    -1.010584    47.405678    -50.948009    11.042434    6.264535    15.764318    -32.034843    1.999769    2.609051    31.076214    4.484061    -14.700277    -11.234811    -17.264402    0.406020    -1.732303    -0.451488    -26.882811    -22.182755    -6.664583    6.833228    41.751640    -0.809252    15.795510    0.514566    -9.532084    0.647883    -10.786355    -0.712290    
-4.773010    82.592323    106.828842    7.786782    -14.902400    -175.305939    -0.593839    -10.540559    2.155535    6.130356    3.964324    1.997922    8.534520    8.800219    -15.064702    30.145426    -30.074749    -4.201232    10.763714    7.123206    -9.442346    -12.492086    32.119946    -48.765972    28.529648    4.134890    -40.164478    57.887039    8.258996    -11.757792    -3.670623    12.751386    0.872210    28.609791    22.626394    20.512972    -33.051876    -1.037807    48.374626    -51.201134    11.247332    6.262516    15.640150    -31.263418    1.863251    2.450230    30.210714    4.561185    -14.632645    -11.155379    -17.213432    0.391302    -1.776408    -0.435157    -27.139519    -22.035141    -6.764599    7.212941    44.508244    -0.878230    15.364227    0.603231    -9.716089    0.681545    -11.113941    -0.749715    
-5.133005    82.852463    106.591057    7.918856    -14.807592    -175.309357    -0.570216    -10.624232    2.040361    6.293211    3.835891    1.882403    8.501080    8.981964    -15.172886    30.450459    -29.579752    -4.302673    10.550610    7.666022    -8.556693    -13.767560    33.313652    -46.653049    28.580759    4.014739    -40.943493    57.860313    8.434712    -11.674162    -3.574167    13.102036    -0.014358    29.739738    23.496454    18.879862    -32.830769    -1.046181    49.261597    -51.445568    11.427634    6.267231    15.532103    -30.521259    1.770534    2.301110    29.374416    4.624015    -14.595000    -11.073058    -17.197035    0.376793    -1.811731    -0.419050    -27.415237    -21.909267    -6.912436    7.585387    47.442257    -0.878482    14.960130    0.667347    -9.905120    0.706907    -11.413545    -0.778009    
